<svg preserveAspectRatio="none" width="100%" height="100%" overflow="visible" style="display: block;" viewBox="0 0 9.03272 11.0021" fill="none" xmlns="http://www.w3.org/2000/svg">
<g id="Group">
<path id="Vector" d="M4.51563 0C4.76876 0 4.97796 0.1881 5.01109 0.432153L5.01563 0.5V10.5C5.01563 10.7761 4.79176 11 4.51563 11C4.26249 11 4.05329 10.8119 4.02023 10.5679L4.01563 10.5V0.5C4.01563 0.22386 4.23949 0 4.51563 0Z" fill="var(--fill-0, #0977BE)"/>
<path id="Vector_2" d="M8.17836 6.11594C8.37316 5.92028 8.68976 5.91961 8.88543 6.11441C9.06336 6.29154 9.0801 6.56928 8.9353 6.76534L8.88696 6.82154L4.87096 10.8549C4.6933 11.0333 4.41456 11.0495 4.21856 10.9035L4.16236 10.8549L0.145716 6.82154C-0.049144 6.62588 -0.0484839 6.30934 0.147176 6.11448C0.325056 5.93734 0.602869 5.92174 0.798303 6.06741L0.854283 6.11594L4.5169 9.79328L8.17836 6.11594Z" fill="var(--fill-0, #0977BE)"/>
</g>
</svg>
