<svg preserveAspectRatio="none" width="100%" height="100%" overflow="visible" style="display: block;" viewBox="0 0 26.3193 20.5459" fill="none" xmlns="http://www.w3.org/2000/svg">
<path id="Vector" fill-rule="evenodd" clip-rule="evenodd" d="M11.15 1.9376C11.2607 -0.101816 13.8547 -0.6761 14.8801 0.968491C15.6039 2.12987 14.9109 3.61949 13.6175 3.93763C13.5786 3.9479 13.3114 3.97779 12.816 4.02857C11.2156 4.19307 9.70751 5.69004 9.60256 7.28814C9.57061 7.76038 9.56295 8.11557 9.34219 8.51828C8.3793 10.2713 5.79639 9.72162 5.5796 7.74846C5.47461 6.78896 6.20081 5.81184 7.12491 5.62132C7.49172 5.54607 8.04876 5.56032 8.46177 5.44565C9.78369 5.07686 10.9293 3.8081 11.1224 2.44087C11.1224 2.4384 11.1318 2.2707 11.15 1.9376ZM20.7386 2.00029C20.7386 3.10442 19.8439 3.99918 18.7392 3.99918C17.6348 3.99918 16.7401 3.10442 16.7401 2.00029C16.7401 0.895927 17.6348 0.00109994 18.7392 0.00109994C19.8438 0.00109994 20.7386 0.895927 20.7386 2.00029ZM3.99959 7.57511C3.99959 8.67947 3.10407 9.57503 1.99971 9.57503C0.895329 9.57503 0 8.67972 0 7.57511C0 6.47111 0.895329 5.57544 1.99971 5.57544C3.10407 5.57544 3.99959 6.47111 3.99959 7.57511ZM15.1593 7.57511C15.1593 8.67947 14.2637 9.57503 13.1596 9.57503C12.055 9.57503 11.1597 8.67972 11.1597 7.57511C11.1597 6.47111 12.055 5.57544 13.1596 5.57544C14.2637 5.57544 15.1593 6.47111 15.1593 7.57511ZM26.2288 13.7239C25.566 15.9001 22.3864 15.4611 22.3154 13.1798C22.2584 11.39 20.8729 9.80203 19.0692 9.60922C18.7315 9.57274 18.3819 9.57359 18.0772 9.4661C16.6064 8.94615 16.2703 7.01436 17.4657 6.03574C18.5122 5.17812 20.0018 5.5635 20.5643 6.76426C20.7289 7.11572 20.7385 7.49845 20.7739 7.90112C20.9165 9.54511 22.4166 10.9699 24.0224 11.1268C24.517 11.1751 24.7805 11.2035 24.8113 11.2113C25.904 11.4849 26.5634 12.625 26.2288 13.7239ZM26.3192 7.57511C26.3192 8.67947 25.4237 9.57503 24.3193 9.57503C23.2147 9.57503 22.3191 8.67972 22.3191 7.57511C22.3194 6.47111 23.2146 5.57544 24.3193 5.57544C25.4237 5.57544 26.319 6.47111 26.3192 7.57511ZM9.58028 13.1512C9.58028 14.2565 8.68475 15.1518 7.57977 15.1518C6.47457 15.1518 5.57898 14.2565 5.57898 13.1512C5.57898 12.0461 6.47457 11.1504 7.57977 11.1504C8.68475 11.1504 9.58028 12.0461 9.58028 13.1512ZM13.0921 15.1637C11.8747 15.0933 10.9729 14.0022 11.1936 12.8073C11.5938 10.6464 14.6071 10.5974 15.1213 12.7317C15.236 13.2051 15.1571 13.8086 15.4069 14.4042C15.8746 15.5157 16.9737 16.2738 18.1619 16.4959C18.1619 16.4959 18.3873 16.5165 18.8342 16.5576C20.025 16.6677 20.8666 17.6208 20.7195 18.8108C20.4474 21.0181 17.3074 21.1684 16.7766 18.9799C16.7093 18.7047 16.7276 18.2427 16.6682 17.9358C16.3967 16.5268 15.1262 15.4532 13.7141 15.2042C13.6865 15.1994 13.4791 15.1856 13.0921 15.1637ZM20.7399 13.15C20.7399 14.2548 19.8444 15.1503 18.7401 15.1503C17.6357 15.1503 16.7401 14.2548 16.7401 13.15C16.7401 12.0461 17.6357 11.1504 18.7401 11.1504C19.8444 11.1504 20.7399 12.0461 20.7399 13.15ZM9.57942 2.00029C9.57942 3.10442 8.68381 4.00007 7.57977 4.00007C6.47516 4.00007 5.57956 3.1044 5.57956 2.00029C5.57956 0.895927 6.47516 0 7.57977 0C8.68381 2.28698e-05 9.57942 0.895927 9.57942 2.00029Z" fill="var(--fill-0, #0977BE)"/>
</svg>
