<svg preserveAspectRatio="none" width="100%" height="100%" overflow="visible" style="display: block;" viewBox="0 0 12 12.6992" fill="none" xmlns="http://www.w3.org/2000/svg">
<g id="fi_18292376">
<path id="Vector" d="M9.45347 4.60456H9.4349V3.41629C9.4349 1.54104 7.89386 0 6.01861 0C4.14337 0 2.60232 1.54104 2.60232 3.41629V4.60456H2.52806C2.02675 4.60456 1.61829 5.01303 1.61829 5.51433V10.4902C1.61829 10.9915 2.02676 11.4 2.52806 11.4H9.47203C9.97334 11.4 10.3818 10.9915 10.3818 10.4902V5.49576C10.3447 4.99446 9.95477 4.60456 9.45347 4.60456ZM6.51992 7.96651C6.44565 8.02221 6.42708 8.05935 6.42708 8.15218V9.24762C6.42708 9.39616 6.35281 9.54469 6.22285 9.61896C5.90721 9.78606 5.59158 9.56326 5.59158 9.24762C5.59158 8.87629 5.59158 8.52352 5.59158 8.15218C5.59158 8.07791 5.57301 8.02221 5.51731 7.98508C5.18311 7.74371 5.07171 7.31668 5.23881 6.96391C5.40591 6.61114 5.79581 6.4069 6.16715 6.48117C6.57562 6.55544 6.87268 6.88964 6.87268 7.31668C6.85412 7.55805 6.74272 7.79941 6.51992 7.96651ZM7.93099 4.60456H4.08767V3.41629C4.08767 2.35798 4.94174 1.48534 6.01861 1.48534C7.07692 1.48534 7.94956 2.33941 7.94956 3.41629V4.60456H7.93099Z" fill="var(--fill-0, #ABB2C1)"/>
</g>
</svg>
